<svg xmlns="http://www.w3.org/2000/svg" viewBox="0 0 176.04 29.25"><defs><style>.cls-1{fill:#e6e7e8;stroke:#e6e7e8;}.cls-1,.cls-2,.cls-3{stroke-miterlimit:10;stroke-width:4px;}.cls-2{fill:#fff;}.cls-2,.cls-3{stroke:#ebb2ad;}.cls-3{fill:none;}.cls-4{fill:#ebb2ad;}</style></defs><g id="Layer_2" data-name="Layer 2"><g id="Layer_1-2" data-name="Layer 1"><line class="cls-1" x1="76.18" y1="14.62" x2="99.86" y2="14.62"/><circle class="cls-2" cx="14.62" cy="14.62" r="12.62"/><circle class="cls-2" cx="63.55" cy="14.62" r="12.62"/><circle class="cls-1" cx="161.41" cy="14.62" r="12.62"/><circle class="cls-1" cx="112.48" cy="14.62" r="12.62"/><line class="cls-3" x1="27.25" y1="14.62" x2="50.93" y2="14.62"/><line class="cls-1" x1="125.11" y1="14.62" x2="148.79" y2="14.62"/><path class="cls-4" d="M17.66,15.19a3.35,3.35,0,0,0-6.09,0l-1.49,3.27a1.85,1.85,0,0,0,1.68,2.62h5.76a1.82,1.82,0,0,0,1.65-2.58Z"/><ellipse class="cls-4" cx="8.23" cy="14.27" rx="1.68" ry="2.12"/><ellipse class="cls-4" cx="12.22" cy="10.28" rx="1.68" ry="2.12"/><ellipse class="cls-4" cx="16.62" cy="10.28" rx="1.68" ry="2.12"/><ellipse class="cls-4" cx="21.02" cy="14.62" rx="1.68" ry="2.12"/></g></g></svg>