<svg xmlns="http://www.w3.org/2000/svg" viewBox="0 0 176.04 29.25"><defs><style>.cls-1{fill:#fff;}.cls-1,.cls-2{stroke:#ebb2ad;stroke-miterlimit:10;stroke-width:4px;}.cls-2{fill:none;}.cls-3{fill:#ebb2ad;}</style></defs><g id="Layer_2" data-name="Layer 2"><g id="Layer_1-2" data-name="Layer 1"><circle class="cls-1" cx="14.62" cy="14.62" r="12.62"/><circle class="cls-1" cx="63.55" cy="14.62" r="12.62"/><circle class="cls-1" cx="161.41" cy="14.62" r="12.62"/><circle class="cls-1" cx="112.48" cy="14.62" r="12.62"/><line class="cls-2" x1="27.25" y1="14.62" x2="50.93" y2="14.62"/><line class="cls-2" x1="76.18" y1="14.62" x2="99.86" y2="14.62"/><line class="cls-2" x1="125.11" y1="14.62" x2="148.79" y2="14.62"/><path class="cls-3" d="M17.66,15.58a3.35,3.35,0,0,0-6.09,0l-1.49,3.28a1.84,1.84,0,0,0,1.68,2.61h5.76a1.82,1.82,0,0,0,1.65-2.57Z"/><ellipse class="cls-3" cx="8.23" cy="14.66" rx="1.68" ry="2.12"/><ellipse class="cls-3" cx="12.22" cy="10.68" rx="1.68" ry="2.12"/><ellipse class="cls-3" cx="16.62" cy="10.68" rx="1.68" ry="2.12"/><ellipse class="cls-3" cx="21.02" cy="15.01" rx="1.68" ry="2.12"/><path class="cls-3" d="M66.59,15.58a3.35,3.35,0,0,0-6.09,0L59,18.86a1.84,1.84,0,0,0,1.68,2.61h5.76A1.82,1.82,0,0,0,68.1,18.9Z"/><ellipse class="cls-3" cx="57.16" cy="14.66" rx="1.68" ry="2.12"/><ellipse class="cls-3" cx="61.15" cy="10.68" rx="1.68" ry="2.12"/><ellipse class="cls-3" cx="65.55" cy="10.68" rx="1.68" ry="2.12"/><ellipse class="cls-3" cx="69.95" cy="15.01" rx="1.68" ry="2.12"/><path class="cls-3" d="M115.52,15.58a3.35,3.35,0,0,0-6.09,0l-1.49,3.28a1.84,1.84,0,0,0,1.68,2.61h5.76A1.82,1.82,0,0,0,117,18.9Z"/><ellipse class="cls-3" cx="106.09" cy="14.66" rx="1.68" ry="2.12"/><ellipse class="cls-3" cx="110.08" cy="10.68" rx="1.68" ry="2.12"/><ellipse class="cls-3" cx="114.48" cy="10.68" rx="1.68" ry="2.12"/><ellipse class="cls-3" cx="118.88" cy="15.01" rx="1.68" ry="2.12"/></g></g></svg>