<svg width="25" height="23" viewBox="0 0 25 23" fill="none" xmlns="http://www.w3.org/2000/svg">
<path fill-rule="evenodd" clip-rule="evenodd" d="M25 11.5C25 14.55 23.683 17.4751 21.3388 19.6317C18.9946 21.7884 15.8152 23 12.5 23C9.18479 23 6.00537 21.7884 3.66117 19.6317C1.31696 17.4751 0 14.55 0 11.5C0 8.45001 1.31696 5.52494 3.66117 3.36827C6.00537 1.2116 9.18479 0 12.5 0C15.8152 0 18.9946 1.2116 21.3388 3.36827C23.683 5.52494 25 8.45001 25 11.5ZM12.5 7.1875C12.2255 7.18725 11.9557 7.25356 11.7179 7.37974C11.4801 7.50592 11.2826 7.68752 11.1453 7.90625C11.0462 8.0757 10.9111 8.22511 10.7481 8.34564C10.585 8.46616 10.3973 8.55534 10.1961 8.60789C9.99492 8.66045 9.78429 8.6753 9.57673 8.65157C9.36917 8.62785 9.1689 8.56602 8.98779 8.46977C8.80668 8.37351 8.64842 8.24478 8.52239 8.09121C8.39637 7.93764 8.30513 7.76235 8.25411 7.57574C8.20308 7.38913 8.1933 7.195 8.22533 7.00484C8.25737 6.81469 8.33058 6.63239 8.44063 6.46875C8.95659 5.64666 9.75298 5.00417 10.7063 4.64091C11.6596 4.27766 12.7165 4.21394 13.7132 4.45964C14.7099 4.70534 15.5906 5.24672 16.2188 5.99984C16.8469 6.75295 17.1875 7.67571 17.1875 8.625C17.1878 9.51714 16.8874 10.3874 16.3278 11.116C15.7681 11.8445 14.9767 12.3955 14.0625 12.6931V12.9375C14.0625 13.3187 13.8979 13.6844 13.6049 13.954C13.3118 14.2235 12.9144 14.375 12.5 14.375C12.0856 14.375 11.6882 14.2235 11.3951 13.954C11.1021 13.6844 10.9375 13.3187 10.9375 12.9375V11.5C10.9375 11.1188 11.1021 10.7531 11.3951 10.4835C11.6882 10.214 12.0856 10.0625 12.5 10.0625C12.9144 10.0625 13.3118 9.91105 13.6049 9.64147C13.8979 9.37188 14.0625 9.00625 14.0625 8.625C14.0625 8.24375 13.8979 7.87812 13.6049 7.60853C13.3118 7.33895 12.9144 7.1875 12.5 7.1875ZM12.5 18.6875C12.9144 18.6875 13.3118 18.536 13.6049 18.2665C13.8979 17.9969 14.0625 17.6312 14.0625 17.25C14.0625 16.8688 13.8979 16.5031 13.6049 16.2335C13.3118 15.964 12.9144 15.8125 12.5 15.8125C12.0856 15.8125 11.6882 15.964 11.3951 16.2335C11.1021 16.5031 10.9375 16.8688 10.9375 17.25C10.9375 17.6312 11.1021 17.9969 11.3951 18.2665C11.6882 18.536 12.0856 18.6875 12.5 18.6875Z" fill="#EBB2AD"/>
</svg>
