<svg width="38" height="33" viewBox="0 0 38 33" fill="none" xmlns="http://www.w3.org/2000/svg">
<path fill-rule="evenodd" clip-rule="evenodd" d="M18.1936 32.1686C17.7656 32.5964 17.1852 32.8367 16.5801 32.8367C15.975 32.8367 15.3946 32.5964 14.9666 32.1686L1.27377 18.4757C0.845928 18.0477 0.605587 17.4674 0.605587 16.8622C0.605587 16.2571 0.845928 15.6767 1.27377 15.2488L14.9666 1.5559C15.1771 1.33794 15.429 1.16408 15.7074 1.04447C15.9858 0.924867 16.2853 0.861911 16.5883 0.859278C16.8913 0.856645 17.1918 0.914387 17.4723 1.02914C17.7528 1.14388 18.0076 1.31334 18.2219 1.52762C18.4361 1.74189 18.6056 1.9967 18.7203 2.27717C18.8351 2.55763 18.8928 2.85814 18.8902 3.16117C18.8876 3.46419 18.8246 3.76365 18.705 4.04208C18.5854 4.32051 18.4115 4.57233 18.1936 4.78285L8.39633 14.5801L34.8372 14.5801C35.4425 14.5801 36.023 14.8205 36.451 15.2485C36.8789 15.6765 37.1194 16.257 37.1194 16.8622C37.1194 17.4675 36.8789 18.048 36.451 18.476C36.023 18.9039 35.4425 19.1444 34.8372 19.1444L8.39633 19.1444L18.1936 28.9416C18.6214 29.3696 18.8618 29.9499 18.8618 30.5551C18.8618 31.1602 18.6214 31.7406 18.1936 32.1686Z" fill="#97D4FF"/>
</svg>
