<svg width="23" height="25" viewBox="0 0 23 25" fill="none" xmlns="http://www.w3.org/2000/svg">
<path d="M21.6667 4.66667H19.3333L17.8517 3.185C17.3158 2.6486 16.5915 2.34295 15.8333 2.33333H12.9167C12.7533 1.6786 12.3793 1.09565 11.8524 0.67409C11.3254 0.252533 10.6746 0.0157019 10 0V7.42C10.0599 8.59825 10.5257 9.71946 11.3183 10.5933C12.6233 11.8479 14.3302 12.6001 16.1367 12.7167L20.1617 11.1067C20.6339 10.9171 21.0592 10.6268 21.4077 10.2561C21.7563 9.88533 22.0199 9.44303 22.18 8.96L22.8333 7.175C22.8511 7.0551 22.8511 6.93324 22.8333 6.81333V5.83333C22.8333 5.52391 22.7104 5.22717 22.4916 5.00838C22.2728 4.78958 21.9761 4.66667 21.6667 4.66667ZM15.8333 7C15.6026 7 15.377 6.93158 15.1852 6.80338C14.9933 6.67519 14.8438 6.49298 14.7555 6.2798C14.6672 6.06662 14.6441 5.83204 14.6891 5.60573C14.7341 5.37942 14.8452 5.17154 15.0084 5.00838C15.1715 4.84521 15.3794 4.7341 15.6057 4.68908C15.832 4.64407 16.0666 4.66717 16.2798 4.75547C16.493 4.84378 16.6752 4.99331 16.8034 5.18517C16.9316 5.37703 17 5.60259 17 5.83333C17 6.14275 16.8771 6.4395 16.6583 6.65829C16.4395 6.87708 16.1428 7 15.8333 7Z" fill="#EBB2AD"/>
<path d="M10.9433 12.6967C10.1295 11.8053 9.59771 10.6931 9.415 9.5H4.66667C4.35491 9.52062 4.04235 9.47441 3.74991 9.36444C3.45746 9.25447 3.19189 9.0833 2.97096 8.86237C2.75004 8.64145 2.57886 8.37587 2.46889 8.08343C2.35893 7.79098 2.31271 7.47842 2.33333 7.16667C2.33333 6.85725 2.21042 6.5605 1.99162 6.34171C1.77283 6.12292 1.47609 6 1.16667 6C0.857247 6 0.560501 6.12292 0.341709 6.34171C0.122916 6.5605 0 6.85725 0 7.16667C0.0117197 7.9763 0.202985 8.77324 0.56 9.5C0.953576 10.2631 1.57279 10.8864 2.33333 11.285V24.6667H5.83333V18.8333H12.8333V24.6667H16.3333V15.1817C14.2981 15.0214 12.3869 14.1402 10.9433 12.6967Z" fill="#EBB2AD"/>
</svg>
