<svg width="23" height="23" viewBox="0 0 23 23" fill="none" xmlns="http://www.w3.org/2000/svg">
<path d="M8.16667 16.3333C10.2235 16.3333 12.0983 15.5633 13.5368 14.3045L15.0967 17.5712C15.0967 17.5712 15.4175 17.8325 15.8585 18.2665C16.31 18.69 16.9038 19.2628 17.4732 19.8613L19.0575 21.4853L19.7622 22.239L22.2367 19.7645L21.483 19.0598L19.859 17.4755C19.3126 16.9521 18.7808 16.4137 18.2642 15.8608C17.8302 15.4198 17.5688 15.099 17.5688 15.099L14.3022 13.5392C15.6105 12.0552 16.3327 10.145 16.3333 8.16667C16.3333 3.6645 12.6688 0 8.16667 0C3.6645 0 0 3.6645 0 8.16667C0 12.6688 3.6645 16.3333 8.16667 16.3333Z" fill="#EBB2AD"/>
</svg>
