<svg width="102" height="94" viewBox="0 0 102 94" fill="none" xmlns="http://www.w3.org/2000/svg">
<path fill-rule="evenodd" clip-rule="evenodd" d="M55.8074 1.99087C54.5323 0.716118 52.803 0 51 0C49.1969 0 47.4677 0.716118 46.1926 1.99087L0.994655 47.182C0.357151 47.8204 -0.000636749 48.6859 8.50721e-07 49.5881C0.000638451 50.4903 0.359649 51.3553 0.998054 51.9928C1.63646 52.6303 2.50197 52.9881 3.40417 52.9875C4.30637 52.9868 5.17137 52.6278 5.80888 51.9894L51 6.7983L96.1911 51.9894C96.8286 52.6278 97.6936 52.9868 98.5958 52.9875C99.498 52.9881 100.364 52.6303 101.002 51.9928C101.64 51.3553 101.999 50.4903 102 49.5881C102.001 48.6859 101.643 47.8204 101.005 47.182L84.9987 31.1822V8.79062C84.9987 7.88892 84.6405 7.02415 84.0029 6.38655C83.3653 5.74895 82.5006 5.39075 81.5989 5.39075H74.7991C73.8974 5.39075 73.0326 5.74895 72.395 6.38655C71.7574 7.02415 71.3992 7.88892 71.3992 8.79062V17.5827L55.8074 1.99087Z" fill="#EBB2AD"/>
<path fill-rule="evenodd" clip-rule="evenodd" d="M51 14.1828L91.7984 54.9813V83.5878C91.7984 86.2929 90.7238 88.8872 88.8111 90.8C86.8982 92.7128 84.3039 93.7874 81.5988 93.7874H20.4011C17.696 93.7874 15.1017 92.7128 13.1889 90.8C11.2761 88.8872 10.2015 86.2929 10.2015 83.5878V54.9813L51 14.1828ZM51 49.4667C62.3147 38.0907 90.6085 57.9936 51 83.5878C11.3914 57.9936 39.6852 38.0907 51 49.4667Z" fill="#EBB2AD"/>
</svg>
