<svg xmlns="http://www.w3.org/2000/svg" viewBox="0 0 22.63 22.63"><defs><style>.cls-1{fill:#ebb2ad;}</style></defs><g id="Layer_2" data-name="Layer 2"><g id="Layer_1-2" data-name="Layer 1"><path class="cls-1" d="M11.32,0A11.32,11.32,0,1,0,22.63,11.32,11.32,11.32,0,0,0,11.32,0ZM11,19.39A2.25,2.25,0,0,1,8.73,17,2.27,2.27,0,1,1,11,19.39Zm2.79-8.85c-1,1-1.67,1.63-1.53,2.71l.09.7H9.49l-.08-.52c-.36-2.09,1-3.34,2.05-4.35.75-.71,1.41-1.33,1.41-2.06,0-.95-.69-1.52-1.83-1.52A3.42,3.42,0,0,0,8.58,6.6L8.16,7l-2-1.82.43-.45a6.16,6.16,0,0,1,4.54-2c2.84,0,4.75,1.64,4.75,4.08C15.9,8.58,14.78,9.62,13.78,10.54Z"/></g></g></svg>