<svg width="55" height="55" viewBox="0 0 55 55" fill="none" xmlns="http://www.w3.org/2000/svg">
<path d="M48.1249 9.16666H6.87492C6.26713 9.16666 5.68424 9.40811 5.25447 9.83788C4.82469 10.2676 4.58325 10.8505 4.58325 11.4583V43.5417C4.58325 44.1494 4.82469 44.7323 5.25447 45.1621C5.68424 45.5919 6.26713 45.8333 6.87492 45.8333H48.1249C48.7327 45.8333 49.3156 45.5919 49.7454 45.1621C50.1751 44.7323 50.4166 44.1494 50.4166 43.5417V11.4583C50.4166 10.8505 50.1751 10.2676 49.7454 9.83788C49.3156 9.40811 48.7327 9.16666 48.1249 9.16666ZM45.8333 34.375C44.0099 34.375 42.2612 35.0993 40.9719 36.3886C39.6826 37.6779 38.9583 39.4266 38.9583 41.25H16.0416C16.0416 39.4266 15.3173 37.6779 14.0279 36.3886C12.7386 35.0993 10.9899 34.375 9.16659 34.375V20.625C10.9899 20.625 12.7386 19.9007 14.0279 18.6114C15.3173 17.322 16.0416 15.5734 16.0416 13.75H38.9583C38.9583 15.5734 39.6826 17.322 40.9719 18.6114C42.2612 19.9007 44.0099 20.625 45.8333 20.625V34.375Z" fill="#8EAD83"/>
<path d="M27.4999 18.3333C22.4445 18.3333 18.3333 22.4446 18.3333 27.5C18.3333 32.5554 22.4445 36.6667 27.4999 36.6667C32.5553 36.6667 36.6666 32.5554 36.6666 27.5C36.6666 22.4446 32.5553 18.3333 27.4999 18.3333ZM27.4999 32.0833C24.9722 32.0833 22.9166 30.0277 22.9166 27.5C22.9166 24.9723 24.9722 22.9167 27.4999 22.9167C30.0276 22.9167 32.0833 24.9723 32.0833 27.5C32.0833 30.0277 30.0276 32.0833 27.4999 32.0833Z" fill="#8EAD83"/>
</svg>
