<svg width="28" height="28" viewBox="0 0 28 28" fill="none" xmlns="http://www.w3.org/2000/svg">
<path fill-rule="evenodd" clip-rule="evenodd" d="M27.2 13.6C27.2 17.2069 25.7671 20.6662 23.2167 23.2167C20.6662 25.7671 17.2069 27.2 13.6 27.2C9.99306 27.2 6.53384 25.7671 3.98335 23.2167C1.43285 20.6662 0 17.2069 0 13.6C0 9.99306 1.43285 6.53384 3.98335 3.98335C6.53384 1.43285 9.99306 0 13.6 0C17.2069 0 20.6662 1.43285 23.2167 3.98335C25.7671 6.53384 27.2 9.99306 27.2 13.6ZM13.6 8.5C13.3013 8.49971 13.0078 8.57812 12.7491 8.72734C12.4903 8.87656 12.2754 9.09132 12.1261 9.35C12.0183 9.55039 11.8713 9.72709 11.6939 9.86962C11.5165 10.0122 11.3123 10.1176 11.0934 10.1798C10.8745 10.2419 10.6453 10.2595 10.4195 10.2314C10.1937 10.2034 9.97576 10.1303 9.77871 10.0164C9.58167 9.90259 9.40948 9.75035 9.27236 9.56874C9.13525 9.38712 9.03599 9.17983 8.98047 8.95914C8.92495 8.73845 8.9143 8.50887 8.94916 8.28399C8.98402 8.05911 9.06367 7.84352 9.1834 7.65C9.74477 6.67779 10.6112 5.91797 11.6484 5.48839C12.6856 5.0588 13.8356 4.98344 14.92 5.27401C16.0044 5.56457 16.9626 6.20482 17.646 7.09546C18.3295 7.9861 18.6999 9.07736 18.7 10.2C18.7003 11.255 18.3735 12.2842 17.7646 13.1458C17.1557 14.0075 16.2946 14.6591 15.3 15.011V15.3C15.3 15.7509 15.1209 16.1833 14.8021 16.5021C14.4833 16.8209 14.0509 17 13.6 17C13.1491 17 12.7167 16.8209 12.3979 16.5021C12.0791 16.1833 11.9 15.7509 11.9 15.3V13.6C11.9 13.1491 12.0791 12.7167 12.3979 12.3979C12.7167 12.0791 13.1491 11.9 13.6 11.9C14.0509 11.9 14.4833 11.7209 14.8021 11.4021C15.1209 11.0833 15.3 10.6509 15.3 10.2C15.3 9.74913 15.1209 9.31673 14.8021 8.99792C14.4833 8.67911 14.0509 8.5 13.6 8.5ZM13.6 22.1C14.0509 22.1 14.4833 21.9209 14.8021 21.6021C15.1209 21.2833 15.3 20.8509 15.3 20.4C15.3 19.9491 15.1209 19.5167 14.8021 19.1979C14.4833 18.8791 14.0509 18.7 13.6 18.7C13.1491 18.7 12.7167 18.8791 12.3979 19.1979C12.0791 19.5167 11.9 19.9491 11.9 20.4C11.9 20.8509 12.0791 21.2833 12.3979 21.6021C12.7167 21.9209 13.1491 22.1 13.6 22.1Z" fill="#EBB2AD"/>
</svg>
