<svg width="38" height="33" viewBox="0 0 38 33" fill="none" xmlns="http://www.w3.org/2000/svg">
<path fill-rule="evenodd" clip-rule="evenodd" d="M19.8064 0.831431C20.2344 0.403595 20.8148 0.163252 21.4199 0.163252C22.025 0.163252 22.6054 0.403595 23.0334 0.831431L36.7262 14.5243C37.1541 14.9523 37.3944 15.5326 37.3944 16.1378C37.3944 16.7429 37.1541 17.3233 36.7262 17.7512L23.0334 31.4441C22.8229 31.6621 22.571 31.8359 22.2926 31.9555C22.0142 32.0751 21.7147 32.1381 21.4117 32.1407C21.1087 32.1434 20.8082 32.0856 20.5277 31.9709C20.2472 31.8561 19.9924 31.6867 19.7781 31.4724C19.5639 31.2581 19.3944 31.0033 19.2797 30.7228C19.1649 30.4424 19.1072 30.1419 19.1098 29.8388C19.1124 29.5358 19.1754 29.2364 19.295 28.9579C19.4146 28.6795 19.5885 28.4277 19.8064 28.2171L29.6037 18.4199L3.16276 18.4199C2.5575 18.4199 1.97702 18.1795 1.54904 17.7515C1.12105 17.3235 0.880615 16.743 0.880615 16.1378C0.880615 15.5325 1.12105 14.952 1.54904 14.524C1.97702 14.0961 2.5575 13.8556 3.16276 13.8556L29.6037 13.8556L19.8064 4.05838C19.3786 3.63042 19.1382 3.05005 19.1382 2.44491C19.1382 1.83977 19.3786 1.2594 19.8064 0.831431Z" fill="#97D4FF" fill-opacity="0.5"/>
</svg>
