<svg width="22" height="22" viewBox="0 0 22 22" fill="none" xmlns="http://www.w3.org/2000/svg">
<path d="M11 0C4.9346 0 0 4.9346 0 11C0 17.0654 4.9346 22 11 22C17.0654 22 22 17.0654 22 11C22 4.9346 17.0654 0 11 0ZM4.8785 7.1137C5.17426 6.80953 5.57645 6.63189 6.00048 6.61815C6.42452 6.6044 6.83736 6.75562 7.1522 7.04C7.46216 6.7514 7.8718 6.59399 8.29526 6.60076C8.71872 6.60753 9.12312 6.77795 9.4237 7.0763C10.0804 7.7275 10.0881 8.7494 9.4435 9.4061L7.1885 11.6974L4.8983 9.4424C4.74238 9.29178 4.61802 9.11162 4.53248 8.91242C4.44695 8.71322 4.40194 8.49898 4.4001 8.2822C4.39826 8.06542 4.43961 7.85045 4.52175 7.64982C4.60389 7.4492 4.72516 7.26695 4.8785 7.1137ZM11 17.6C6.6 17.6 5.5 13.2 5.5 13.2H16.5C16.5 13.2 15.4 17.6 11 17.6ZM17.1435 9.4061L14.8885 11.6974L12.5983 9.4424C12.4424 9.29178 12.3181 9.11165 12.2326 8.9125C12.147 8.71335 12.102 8.49916 12.1 8.28243C12.0981 8.06569 12.1393 7.85073 12.2212 7.65008C12.3032 7.44943 12.4243 7.26709 12.5774 7.1137C12.8732 6.80921 13.2756 6.63136 13.6999 6.61762C14.1242 6.60387 14.5373 6.75529 14.8522 7.04C15.1622 6.7514 15.5718 6.59399 15.9953 6.60076C16.4187 6.60753 16.8231 6.77795 17.1237 7.0763C17.7804 7.7264 17.7892 8.7494 17.1435 9.4061Z" fill="#EBB2AD"/>
</svg>
