<svg xmlns="http://www.w3.org/2000/svg" viewBox="0 0 112.51 129.34"><defs><style>.cls-1{fill:#c7b299;}.cls-2{fill:#736357;}.cls-3{fill:#fff;}.cls-4{fill:#29abe2;}.cls-5{fill:#ffc2f1;}.cls-6,.cls-7{fill:none;stroke-linecap:round;stroke-miterlimit:10;}.cls-6{stroke:#000;}.cls-7{stroke:#534741;}</style></defs><g id="Layer_2" data-name="Layer 2"><g id="Layer_1-2" data-name="Layer 1"><circle class="cls-1" cx="44.65" cy="34.19" r="32.09"/><path class="cls-1" d="M67.25,58.31S96,74.61,102,82.26s16.3,25.93,6.32,30.26-34.25,5-39.24,3.65S67.25,58.31,67.25,58.31Z"/><path class="cls-1" d="M26.73,62s-9.84,19-9.84,25.95-1,25.27,0,26.93,42.9,4.33,52.21,1.33c8.15-2.61,8.63-40.11,1.62-53.68a10.28,10.28,0,0,0-3.47-4.18C56.8,52,26.73,62,26.73,62Z"/><ellipse class="cls-2" cx="39.67" cy="49.99" rx="15.67" ry="22.39" transform="translate(-14.99 82.93) rotate(-82.64)"/><path class="cls-2" d="M55.84,15s2.49-11.44,6-10.45,19.4,8,16.91,12.94-12.88,10.84-16.91,9S54.45,19.83,55.84,15Z"/><path class="cls-2" d="M30.25,17.4s7-9.4,4-11.37S15.45-3.36,13.34,1.78s.29,16.84,4.36,18.64S27.54,21.6,30.25,17.4Z"/><ellipse class="cls-3" cx="32.19" cy="26.15" rx="6.41" ry="4.24" transform="translate(0.14 52.47) rotate(-78.48)"/><ellipse class="cls-4" cx="31.68" cy="25.34" rx="3.75" ry="2.79" transform="translate(0.52 51.32) rotate(-78.48)"/><ellipse cx="30.98" cy="25.2" rx="2.42" ry="1.8" transform="translate(0.1 50.52) rotate(-78.48)"/><circle class="cls-3" cx="33.41" cy="23.86" r="1.4"/><ellipse class="cls-3" cx="49.81" cy="27.23" rx="6.41" ry="4.24" transform="translate(11.43 69.06) rotate(-76.13)"/><ellipse class="cls-4" cx="49.33" cy="26.41" rx="3.75" ry="2.79" transform="translate(11.87 67.97) rotate(-76.13)"/><ellipse cx="48.64" cy="26.23" rx="2.42" ry="1.8" transform="translate(11.51 67.17) rotate(-76.13)"/><circle class="cls-3" cx="51.12" cy="24.99" r="1.4"/><ellipse cx="38.33" cy="42.29" rx="6.31" ry="3.27"/><path class="cls-5" d="M32.77,56.13s2.45,4.82,3.49,5.92c1.67,1.75,4,.77,4.83,0s2-5.59,2-5.59-4.2-2.73-4.77-5.33S36.76,55.65,32.77,56.13Z"/><path class="cls-6" d="M23.76,50s3.31,4.93,7.67,5.71a5.25,5.25,0,0,0,6-4.22,19,19,0,0,0,.33-2.92s.24,1.22.58,2.59a6.43,6.43,0,0,0,5.88,5,8.67,8.67,0,0,0,4.52-1c4.43-2.32,4.93-3.43,4.93-3.43"/><path class="cls-1" d="M22.11,90S5.41,102.66,3,108.16s-5.08,9-.68,12.45,10.54,2.17,12.12-1.15S32.9,98.25,32.9,98.25Z"/><path class="cls-1" d="M39,93.59S26.15,110.11,25.27,116s-2.58,10,2.56,12.21,10.74-.64,11.41-4.25S51.57,98.75,51.57,98.75Z"/><path class="cls-1" d="M84.55,97.3l1.81,13.51s-18.87,3.44-21,7.78-1.31,8.64,4.5,9,32.43-6.33,32.9-7.92-4.37-14.7-2.52-19.28S84.55,97.3,84.55,97.3Z"/><path class="cls-7" d="M4.59,114.84s-5,4.26-2.24,5.77"/><path class="cls-7" d="M8.47,116.79s-5,4.26-2.24,5.77"/><path class="cls-7" d="M28.07,121.43s-2.91,5.91.25,6.18"/><path class="cls-7" d="M32.68,122.65s-2.92,5.92.25,6.19"/><path class="cls-7" d="M67.5,120.61s-2.91,5.92.25,6.19"/><path class="cls-7" d="M71.77,120.61s-2.92,5.92.25,6.19"/></g></g></svg>