<svg width="27" height="18" viewBox="0 0 27 18" fill="none" xmlns="http://www.w3.org/2000/svg">
<path d="M12.6667 7C11.2213 7 10 8.145 10 9.5C10 10.855 11.2213 12 12.6667 12C14.112 12 15.3333 10.855 15.3333 9.5C15.3333 8.145 14.112 7 12.6667 7Z" fill="#EBB2AD"/>
<path d="M13.4053 0C3.228 0 0.169333 8.27125 0.141333 8.355L0 8.75L0.14 9.145C0.169334 9.22875 3.228 17.5 13.4053 17.5C23.5827 17.5 26.6413 9.22875 26.6693 9.145L26.8107 8.75L26.6707 8.355C26.6413 8.27125 23.5827 0 13.4053 0ZM13.4053 13.75C10.464 13.75 8.072 11.5075 8.072 8.75C8.072 5.9925 10.464 3.75 13.4053 3.75C16.3467 3.75 18.7387 5.9925 18.7387 8.75C18.7387 11.5075 16.3467 13.75 13.4053 13.75Z" fill="#EBB2AD"/>
</svg>
